<?xml version="1.0" standalone="no"?><!DOCTYPE svg PUBLIC "-//W3C//DTD SVG 1.1//EN" "http://www.w3.org/Graphics/SVG/1.1/DTD/svg11.dtd"><svg t="1708858251367" class="icon" viewBox="0 0 1024 1024" version="1.1" xmlns="http://www.w3.org/2000/svg" p-id="6154" xmlns:xlink="http://www.w3.org/1999/xlink" width="200" height="200"><path d="M345.00456334 453.0176a179.13173333 179.13173333 0 0 1-18.20444444 0c-26.2144 0-138.59650333-3.15543666-221.36604445-155.10186667A158.25730333 158.25730333 0 0 0 66.59792555 245.0014811a36.40888889 36.40888889 0 0 1-9.46631112-58.25422222c6.06814777-6.06814777 149.76189667-147.57736334 301.95105224-119.17842887 24.27259221 1.45635555 135.68379221 17.23354112 205.34613333 169.90814777a34.22435555 34.22435555 0 0 1 2.18453333 6.31087445c2.42725888 9.22358557 11.16539221 26.69985223 18.93262222 26.6998511a36.40888889 36.40888889 0 0 1 24.27259222 64.56509667c-16.50536334 12.62174777-148.79099221 117.9648-264.81398443 117.9648z m-17.47626667-72.81777778h4.61179222c56.79786667 7.28177778 135.68379221-34.95253333 187.86986666-69.66234112a132.28563001 132.28563001 0 0 1-23.05896334-44.90429553c-56.55514112-121.36296334-139.3246811-125.48930333-142.72284444-125.48930447h-6.5536c-81.55591111-16.26263666-166.75271111 39.56432555-210.2006511 72.81777778a294.18382222 294.18382222 0 0 1 32.28254778 50.97244445c67.2350811 123.06204445 152.4318811 116.02299221 153.16005888 116.02299334zM190.38814777 958.85843001a35.68071111 35.68071111 0 0 1-9.22358443 0 36.40888889 36.40888889 0 0 1-24.27259335-22.08806002c-3.15543666-8.00995555-74.51685888-196.608 13.1072-324.28183666 11.16539221-21.11715555 70.63324445-117.23662222 239.0850378-118.93570332h6.5536c9.46631111 1.45635555 29.12711111 0 32.28254776-6.5536a36.40888889 36.40888889 0 0 1 68.44871112 5.09724444c5.58269667 20.38897778 52.67152555 200.49161443-7.03905224 305.34921444-9.46631111 24.27259221-58.73967445 125.48930333-231.31780664 139.81013333a158.25730333 158.25730333 0 0 0-63.8369189 14.07810333 36.40888889 36.40888889 0 0 1-23.78714112 7.52450446z m216.02607445-393.45872668c-133.98471111 2.42725888-169.90814777 76.70139221-172.57813333 79.85683a45.14702222 45.14702222 0 0 1-3.39816334 5.82542222c-48.54518557 67.72053333-31.31164445 168.45179221-17.47626667 221.85149668a294.912 294.912 0 0 1 59.71057778-8.98086002c139.08195555-11.65084445 167.23816334-90.29404445 168.20906667-93.69220664a43.44794112 43.44794112 0 0 1 3.39816334-7.76723002c29.61256334-48.54518557 23.05896334-138.11105223 12.37902222-200.00616334a132.04290333 132.04290333 0 0 1-50.24426667 2.91271112zM900.3614811 955.9457189h-2.91271111c-8.49540779 0-209.47247445-18.93262222-285.93113998-153.64551111-14.07810333-19.17534777-74.51685888-114.56663666-2.18453334-266.9985189a37.13706667 37.13706667 0 0 1 3.39816221-5.82542222c5.33996999-7.76723001 13.1072-25.97167445 8.25268224-31.79709668A36.40888889 36.40888889 0 0 1 655.69374777 439.18222222c20.87443001 3.88361443 203.40432555 40.29250333 271.61031111 139.81013333 17.71899221 19.17534777 87.13860779 107.77031111 24.27259335 269.18305224a158.74275555 158.74275555 0 0 0-15.29173333 63.59419221A36.40888889 36.40888889 0 0 1 900.3614811 955.9457189z m-225.97783665-386.90512669c-56.31241443 121.36296334-5.82542222 187.38441443-3.6408889 190.0544a44.41884445 44.41884445 0 0 1 3.6408889 5.58269668c40.04977778 72.81777778 137.86832555 101.94488889 191.99620778 112.86755556a296.12563001 296.12563001 0 0 1 17.96171776-57.52604445c50.48699221-130.10109667-8.2526811-189.81167445-10.67993998-192.23893333a44.1761189 44.1761189 0 0 1-5.33997113-6.5536c-31.31164445-48.54518557-114.08118557-81.07045888-174.51993998-98.54672555a132.52835555 132.52835555 0 0 1-19.41807445 46.36065109z" fill="#9F3F41" p-id="6155"></path><path d="M220.72888889 212.47620779a202.19069667 202.19069667 0 0 1 85.92497778-1.45635556 470.88829667 470.88829667 0 0 1 81.55591111 25.48622222 625.99016334 625.99016334 0 0 0 75.24503665 26.2144 295.15472555 295.15472555 0 0 0 72.81777778 9.46631112 36.65161443 36.65161443 0 0 1 0 72.81777777h-6.5536a360.93345223 360.93345223 0 0 1-84.95407331-27.18530446 672.35081443 672.35081443 0 0 1-74.27413333-42.23431111 439.33392555 439.33392555 0 0 0-69.90506667-37.13706667 182.28716999 182.28716999 0 0 0-76.70139335-12.86447331 6.06814777 6.06814777 0 0 1-6.5536-5.82542222 6.31087445 6.31087445 0 0 1 3.39816334-7.28177778zM243.3024 803.27111111a202.91887445 202.91887445 0 0 1 33.98163001-83.4977189 521.86074112 521.86074112 0 0 1 58.01149554-67.96325888 481.56823666 481.56823666 0 0 0 53.88515555-62.38056334 281.31934777 281.31934777 0 0 0 35.43798557-68.9341622 36.65161443 36.65161443 0 1 1 66.50690332 29.6125622 347.09807445 347.09807445 0 0 1-57.76876999 75.73048889 531.81250333 531.81250333 0 0 1-69.90506667 57.2833189 491.52 491.52 0 0 0-64.80782222 52.91425223 182.77262222 182.77262222 0 0 0-43.44794112 69.17688889 6.06814777 6.06814777 0 0 1-7.76722887 3.88361443 6.31087445 6.31087445 0 0 1-4.12634112-5.82542222zM807.64017778 806.42654777a201.94796999 201.94796999 0 0 1-58.01149668-66.0214511 490.54909667 490.54909667 0 0 1-33.98162887-80.34228224 550.5024 550.5024 0 0 0-30.09801557-75.24503665 289.57203001 289.57203001 0 0 0-42.96248889-62.38056335 36.65161443 36.65161443 0 1 1 58.01149668-44.17611776 355.35075555 355.35075555 0 0 1 38.10796998 84.46862223 599.29031111 599.29031111 0 0 1 17.71899336 85.92497777 459.72290333 459.72290333 0 0 0 17.71899221 79.37137778 181.8017189 181.8017189 0 0 0 41.0206811 67.96325888 6.06814777 6.06814777 0 0 1 0 8.73813334 6.31087445 6.31087445 0 0 1-7.52450332 1.6990811z" fill="#9F3F41" p-id="6156"></path></svg>