<?xml version="1.0" standalone="no"?><!DOCTYPE svg PUBLIC "-//W3C//DTD SVG 1.1//EN" "http://www.w3.org/Graphics/SVG/1.1/DTD/svg11.dtd">
<svg t="1694835578439" class="icon" viewBox="0 0 1024 1024" version="1.1" xmlns="http://www.w3.org/2000/svg" p-id="4585"
     width="200" height="200"><path d="M854.371232 53.331188a113.462164 113.462164 0 0 1 113.462163 113.462164v689.282645a113.462164 113.462164 0 0 1-113.462163 113.462164H166.223208a113.462164 113.462164 0 0 1-113.462164-113.462164V170.764528a113.462164 113.462164 0 0 1 113.462164-113.462164h688.148024m6.807729-56.731082H158.848167A158.847029 158.847029 0 0 0 0.001138 159.985622v702.898105a159.41434 159.41434 0 0 0 158.847029 158.84703h702.330794a161.116273 161.116273 0 0 0 113.462164-46.519487 157.145097 157.145097 0 0 0 46.519488-113.462164V159.985622a154.875854 154.875854 0 0 0-46.519488-113.462164 158.847029 158.847029 0 0 0-113.462164-46.519487z" fill="#1296db" p-id="4586"></path><path d="M153.175059 886.710782a17.586635 17.586635 0 0 1-15.884703-7.375041 20.9905 20.9905 0 0 1 0-27.230919 255.289869 255.289869 0 0 1 165.654759-108.356367 346.626911 346.626911 0 0 0-148.635434-33.471338 22.692433 22.692433 0 0 1-21.557812-16.452014 19.855879 19.855879 0 0 1 11.346217-23.827054c9.076973-2.836554 154.875854-66.942677 272.876504-11.346217a226.924328 226.924328 0 0 1 116.866029 154.308543 35.740582 35.740582 0 0 1-10.778906 32.904028c-15.317392 14.750081-43.682933 19.288568-91.904353 13.615459a680.772983 680.772983 0 0 0-266.636085 24.961676 25.528987 25.528987 0 0 1-11.346216 0z m101.548637-205.366517a520.791332 520.791332 0 0 1 123.673758 56.731082 21.557811 21.557811 0 0 1 10.211595 21.557811 22.692433 22.692433 0 0 1-18.153946 17.019325A279.684234 279.684234 0 0 0 226.925465 823.739281a907.697311 907.697311 0 0 1 211.606936-4.538487 162.250894 162.250894 0 0 0 56.731082 0A180.972151 180.972151 0 0 0 402.791819 698.930901a239.405166 239.405166 0 0 0-146.366191-17.586636z m351.165397 182.106773a20.423189 20.423189 0 0 1-20.990501-19.288568 18.721257 18.721257 0 0 1 5.105798-15.317392 19.288568 19.288568 0 0 1 14.18277-7.37504 263.23222 263.23222 0 0 0 251.318693-226.924328 261.530288 261.530288 0 0 0-194.587611-264.934153 20.9905 20.9905 0 0 1-13.615459-26.096298 21.557811 21.557811 0 0 1 26.663608-13.615459 302.943978 302.943978 0 0 1 222.953152 312.588261 306.347842 306.347842 0 0 1-291.597761 262.097599z" p-id="4587" fill="#1296db"></path><path d="M279.685372 667.728805a21.557811 21.557811 0 0 1-19.855879-13.615459 261.530288 261.530288 0 0 1-13.61546-118.000651 291.597761 291.597761 0 0 1 201.395341-243.376341 23.259744 23.259744 0 0 1 16.452014 0 20.423189 20.423189 0 0 1 10.778906 11.913527 22.125122 22.125122 0 0 1 0 17.019325 19.855879 19.855879 0 0 1-12.480838 10.778905 253.020625 253.020625 0 0 0-175.299044 208.770382 226.924328 226.924328 0 0 0 11.913528 98.712082 20.423189 20.423189 0 0 1-12.480838 26.663609h-6.80773z" p-id="4588" fill="#1296db"></path><path d="M590.571701 605.324615H567.311957a263.23222 263.23222 0 0 1-133.885353-48.78873 116.298718 116.298718 0 0 1-52.759906-99.279393 113.462164 113.462164 0 0 1 51.625284-82.82738 19.855879 19.855879 0 0 1 15.884703-3.403865 20.9905 20.9905 0 0 1 16.452014 26.663609 21.557811 21.557811 0 0 1-10.778906 11.346216 70.346542 70.346542 0 0 0-33.471338 51.625284 77.154271 77.154271 0 0 0 37.442514 64.106123 217.847355 217.847355 0 0 0 113.462164 38.009825 213.308868 213.308868 0 0 0 116.866029-19.855879 75.452339 75.452339 0 0 0 48.221419-56.731082c0-36.307892-33.471338-73.183096-91.337042-91.904352a17.586635 17.586635 0 0 1-11.913527-10.211595 19.288568 19.288568 0 0 1 0-15.884703 20.9905 20.9905 0 0 1 10.211595-11.913527 19.855879 19.855879 0 0 1 15.884703 0c78.288893 24.961676 125.943002 77.721582 120.837204 135.019975a113.462164 113.462164 0 0 1-69.21192 91.337042 244.510963 244.510963 0 0 1-118.567961 25.528986z" p-id="4589" fill="#1296db"></path><path d="M610.427579 597.949575a18.721257 18.721257 0 0 1-14.18277-5.673108 20.423189 20.423189 0 0 1 0-29.500163 267.770707 267.770707 0 0 0 22.125122-127.077624v-45.952176a580.926279 580.926279 0 0 1 38.009825-145.798881l6.80773-16.452013c18.153946-56.731082 7.942351-60.134947-16.452014-72.048474a21.557811 21.557811 0 0 0-18.721257 0 48.22142 48.22142 0 0 0-22.125122 36.307892c-3.403865 35.173271-8.509662 70.346542-15.317392 104.952502-2.836554 14.18277-5.673108 26.663609-6.80773 34.60596a710.840457 710.840457 0 0 1-62.971501 138.42384 142.395016 142.395016 0 0 0-14.182771 77.721582 20.9905 20.9905 0 0 1-18.153946 23.259743 19.855879 19.855879 0 0 1-15.884703-2.836554 21.557811 21.557811 0 0 1-7.942351-14.18277 192.318368 192.318368 0 0 1 19.288568-103.81788 658.08055 658.08055 0 0 0 56.731082-127.077624 278.549612 278.549612 0 0 1 9.076973-38.577135A941.73596 941.73596 0 0 0 567.311957 188.351163a92.471664 92.471664 0 0 1 44.250244-68.077298 56.731082 56.731082 0 0 1 56.731082 0c44.817555 21.557811 64.106123 48.78873 38.009825 123.673758l-6.240419 18.153947a546.88763 546.88763 0 0 0-35.740582 135.587286v43.682933a239.972477 239.972477 0 0 1-34.60596 154.308542 19.855879 19.855879 0 0 1-19.288568 3.403865z" p-id="4590" fill="#1296db"></path></svg>
