<?xml version="1.0" standalone="no"?>
<!DOCTYPE svg PUBLIC "-//W3C//DTD SVG 20010904//EN"
 "http://www.w3.org/TR/2001/REC-SVG-20010904/DTD/svg10.dtd">
<svg version="1.0" xmlns="http://www.w3.org/2000/svg"
 width="1024.000000pt" height="1024.000000pt" viewBox="0 0 1024.000000 1024.000000"
 preserveAspectRatio="xMidYMid meet">

<g transform="translate(0.000000,1024.000000) scale(0.100000,-0.100000)"
fill="#000000" stroke="none">
<path d="M6235 9008 c-57 -8 -212 -37 -430 -79 -379 -73 -861 -270 -1060 -432
-172 -141 -261 -247 -357 -427 -94 -174 -128 -323 -128 -557 0 -116 4 -148 35
-279 36 -150 95 -316 158 -440 103 -206 153 -375 161 -549 l6 -130 -25 65
c-14 36 -39 101 -57 145 -35 92 -139 289 -198 375 -141 207 -326 382 -532 500
-56 33 -194 96 -307 142 -113 45 -268 112 -344 150 -76 37 -141 68 -145 68 -4
1 -47 30 -97 65 -49 35 -119 84 -155 108 -88 60 -213 178 -260 247 -21 31 -52
87 -69 125 -17 39 -39 76 -48 83 -25 18 -57 15 -78 -8 -17 -19 -18 -41 -12
-372 4 -194 11 -373 16 -397 8 -42 7 -46 -24 -75 -115 -110 -272 -481 -384
-911 -23 -91 -52 -320 -58 -462 -13 -322 50 -750 152 -1033 115 -316 220 -517
417 -795 57 -81 312 -341 358 -365 14 -7 54 -37 90 -65 234 -186 612 -412 850
-508 47 -19 107 -48 134 -65 86 -55 166 -53 166 3 0 55 -35 83 -150 120 -208
66 -533 243 -777 421 -188 138 -253 194 -393 334 -143 142 -195 207 -321 397
-150 229 -286 542 -349 807 -47 200 -90 506 -90 641 0 246 87 685 190 964 35
96 123 274 178 360 l40 64 20 -69 c29 -96 29 -96 8 -126 -50 -76 -141 -326
-197 -545 -46 -179 -68 -340 -75 -553 -5 -136 -3 -175 20 -325 57 -364 132
-589 297 -889 145 -265 270 -430 492 -650 199 -197 319 -291 547 -428 134 -81
386 -202 563 -269 l88 -34 -6 -60 c-10 -97 -37 -145 -124 -224 -66 -59 -86
-86 -141 -188 -81 -147 -146 -321 -200 -528 -34 -131 -42 -183 -47 -287 -6
-131 3 -180 33 -192 11 -4 14 5 14 43 0 58 26 213 50 301 42 149 131 384 198
516 83 168 111 212 167 273 23 25 70 87 104 138 34 50 69 97 77 104 11 9 36 6
117 -14 199 -50 374 -71 587 -71 230 0 370 6 370 17 0 4 13 7 30 7 16 0 80 11
142 25 267 61 279 65 353 130 33 29 38 37 29 52 -17 28 -75 27 -148 -2 -37
-15 -81 -31 -99 -36 -31 -9 -243 -53 -302 -62 -16 -3 -46 -8 -65 -11 -19 -4
-101 -10 -181 -15 -234 -13 -508 15 -683 69 -100 31 -108 42 -67 99 23 31 155
288 194 376 23 50 26 54 22 25 l-6 -35 24 45 c25 47 86 221 132 375 14 50 33
111 41 138 8 26 23 90 34 143 23 110 114 348 167 438 72 121 83 135 138 178
31 23 89 69 128 101 40 32 106 75 147 96 41 21 97 50 125 66 27 15 59 28 70
30 11 1 33 8 49 14 16 7 35 10 43 7 7 -3 13 -1 13 4 0 5 18 13 40 16 22 4 40
10 40 14 0 4 25 13 55 20 31 7 58 17 61 21 2 5 10 6 17 3 7 -2 33 2 57 11 24
8 72 22 107 30 135 31 312 144 567 360 133 113 203 185 319 328 87 110 223
324 273 432 57 123 170 426 180 485 2 8 7 23 13 35 5 11 22 57 37 103 14 45
30 82 35 82 5 0 24 -24 44 -52 19 -29 62 -91 95 -138 80 -113 208 -373 264
-536 101 -296 146 -657 120 -948 -23 -258 -55 -370 -144 -502 -74 -110 -78
-141 -23 -179 48 -32 73 -32 106 3 33 34 53 90 106 292 51 197 61 280 61 515
-1 353 -46 612 -160 920 -94 251 -187 418 -365 655 -83 111 -83 110 -18 367
28 112 26 148 -12 165 -42 19 -70 -3 -114 -89 -35 -69 -73 -123 -86 -123 -3 0
-92 87 -198 193 -200 201 -325 307 -469 401 -88 56 -204 118 -248 131 -14 4
-43 27 -66 51 -45 48 -88 58 -118 28 -41 -40 11 -133 73 -134 30 0 177 -78
333 -177 116 -73 233 -161 225 -169 -2 -2 -37 18 -78 45 -87 57 -257 152 -344
192 -34 15 -89 44 -123 63 -66 39 -102 45 -126 20 -44 -43 12 -124 86 -124 83
-1 560 -276 743 -430 142 -119 247 -225 244 -245 -7 -33 -187 -162 -314 -225
-135 -66 -220 -92 -380 -115 -448 -64 -764 -153 -970 -272 -230 -133 -384
-273 -510 -463 -78 -116 -162 -290 -203 -420 -37 -116 -91 -352 -99 -435 -8
-84 -19 -98 -26 -34 -14 121 -29 523 -24 644 8 202 60 410 113 456 42 36 278
191 394 259 175 101 203 122 311 230 111 109 204 244 278 402 76 161 99 265
116 518 21 326 74 482 204 602 74 68 151 123 226 161 67 33 88 57 79 91 -3 15
-14 31 -24 36 -22 12 -92 11 -175 -2z m-365 -193 c0 -8 -19 -24 -42 -36 -117
-60 -398 -308 -513 -454 -22 -27 -65 -79 -96 -115 -93 -108 -182 -231 -222
-308 -21 -40 -43 -70 -48 -67 -15 10 -10 96 11 170 26 94 97 235 158 315 27
36 79 88 115 115 65 50 87 79 87 115 0 10 10 26 23 36 21 16 21 16 -23 10 -61
-9 -109 -42 -210 -145 -75 -76 -92 -102 -147 -211 -81 -164 -102 -231 -118
-372 -7 -65 -12 -124 -12 -130 0 -7 -3 -33 -8 -58 -9 -43 -9 -44 -15 -15 -5
25 -9 15 -28 -60 -11 -49 -28 -130 -37 -180 -8 -49 -26 -135 -40 -190 -14 -55
-25 -110 -25 -122 0 -30 -16 -30 -24 0 -9 36 -7 512 4 632 5 61 15 149 21 198
11 80 10 89 -6 107 -10 11 -31 20 -47 20 -25 0 -32 -7 -54 -54 -49 -108 -56
-175 -50 -481 3 -168 11 -318 20 -375 37 -242 47 -323 44 -362 -3 -39 -8 -29
-77 146 -101 255 -121 341 -128 542 -7 189 3 256 54 393 64 168 156 303 310
452 183 179 500 327 958 450 82 22 151 42 154 44 8 8 11 5 11 -10z m31 -240
c-59 -147 -82 -265 -97 -495 -8 -134 -60 -343 -114 -457 -51 -109 -113 -196
-220 -307 -106 -110 -201 -182 -359 -271 -119 -68 -210 -141 -259 -210 l-22
-30 16 55 c39 133 89 195 247 305 234 162 406 338 496 506 67 126 92 222 106
415 6 79 41 225 79 324 55 145 68 176 84 195 20 24 64 56 70 51 2 -2 -10 -39
-27 -81z m-251 -137 c0 -13 -14 -75 -31 -138 -17 -63 -37 -140 -44 -171 -24
-108 -33 -125 -105 -188 -73 -65 -293 -238 -359 -283 -96 -65 -180 -210 -237
-407 -38 -133 -65 -198 -71 -170 -2 9 12 65 31 125 19 60 49 156 66 214 18 58
52 145 76 193 53 105 226 370 314 482 58 74 335 360 353 363 4 1 7 -8 7 -20z
m-115 -613 c-49 -167 -115 -253 -354 -465 -233 -205 -251 -218 -251 -186 0 37
54 178 94 247 51 87 116 150 260 251 134 95 194 147 236 206 19 27 36 46 38
42 1 -3 -9 -46 -23 -95z m-2984 -61 c36 -44 243 -206 315 -248 103 -59 352
-174 514 -238 186 -73 416 -192 517 -266 123 -92 277 -250 350 -359 72 -108
183 -330 246 -493 78 -202 137 -539 151 -875 3 -70 2 -107 -3 -89 -4 17 -11
35 -14 41 -4 6 -16 72 -27 147 -52 357 -227 807 -415 1070 -210 295 -435 474
-783 622 -304 129 -462 229 -558 353 -64 83 -112 101 -151 59 -12 -13 -23 -32
-25 -42 -2 -11 -28 37 -65 120 -91 205 -94 214 -79 214 8 0 20 -7 27 -16z
m-111 -109 c17 -44 45 -110 62 -148 29 -63 30 -68 14 -86 -9 -10 -29 -48 -45
-85 l-28 -67 -17 108 c-32 214 -45 386 -27 368 5 -6 24 -46 41 -90z m353 -331
c191 -161 253 -198 587 -349 266 -120 444 -244 603 -422 136 -153 280 -392
368 -611 68 -168 181 -532 165 -532 -2 0 -34 56 -70 126 -91 173 -154 268
-283 419 -192 225 -358 375 -644 584 -265 193 -400 305 -514 422 -101 104
-229 265 -278 349 -28 49 -49 100 -41 100 2 0 51 -39 107 -86z m4423 38 c-28
-54 -297 -315 -366 -355 -127 -73 -275 -127 -514 -187 -422 -106 -625 -198
-822 -371 -161 -142 -353 -400 -458 -615 -45 -92 -99 -256 -141 -431 -22 -91
-41 -131 -56 -116 -4 4 -3 80 2 168 12 195 65 477 116 615 75 202 238 440 413
603 103 96 158 133 308 207 281 139 431 180 932 255 177 26 422 124 535 214
60 47 70 50 51 13z m-4472 -257 c185 -246 342 -389 715 -654 365 -259 717
-617 858 -872 l31 -55 -111 111 c-98 97 -121 114 -182 139 -118 47 -164 63
-320 111 -360 112 -635 292 -809 528 -62 85 -95 108 -121 87 -8 -7 -15 -28
-15 -48 l0 -35 -35 46 c-82 107 -223 468 -254 648 -12 73 -13 72 48 188 l33
64 40 -74 c22 -41 77 -123 122 -184z m4455 3 c-6 -23 -12 -45 -15 -49 -2 -4
-22 -57 -43 -116 -108 -300 -212 -472 -441 -732 -75 -86 -289 -268 -405 -345
-123 -82 -438 -215 -841 -355 -230 -79 -255 -90 -306 -134 l-56 -47 20 71 c34
127 115 260 194 317 21 16 64 51 94 78 195 176 352 280 715 474 288 153 293
156 585 374 110 83 354 316 407 390 31 44 93 116 99 116 1 0 -2 -19 -7 -42z
m-4749 -225 c22 -80 115 -324 150 -393 119 -238 300 -453 520 -619 199 -149
298 -200 561 -285 276 -91 402 -161 600 -338 131 -117 206 -231 267 -408 l37
-105 -1 -175 c0 -214 -22 -313 -119 -545 -28 -67 -263 -539 -278 -560 -14 -18
-16 -18 -53 -2 -22 9 -84 33 -139 53 -140 51 -440 199 -563 278 -337 215 -681
567 -877 897 -84 140 -198 380 -239 499 -41 122 -81 300 -102 450 -16 119 -18
385 -4 537 10 110 66 378 107 508 28 88 102 255 113 255 4 0 13 -21 20 -47z
m4340 -27 c-6 -8 -55 -47 -108 -85 -232 -170 -393 -274 -516 -337 -72 -36
-205 -110 -296 -164 -91 -53 -187 -109 -214 -125 -27 -15 -109 -85 -183 -156
-73 -71 -137 -129 -142 -129 -4 0 -2 34 5 76 10 56 23 91 47 128 19 28 53 83
76 123 88 149 253 295 431 383 109 53 281 110 460 154 150 36 316 88 380 118
64 31 77 33 60 14z m-3680 -747 c93 -68 197 -130 315 -187 82 -40 146 -64 373
-143 175 -61 381 -178 468 -268 44 -45 118 -168 130 -215 6 -25 -3 -19 -72 49
-133 130 -333 250 -529 318 -153 53 -395 155 -440 184 -215 142 -458 373 -521
496 -12 23 14 2 92 -73 60 -58 143 -130 184 -161z m2060 -310 c-12 -16 -25
-28 -28 -25 -5 6 36 56 45 56 3 0 -5 -14 -17 -31z m-423 -436 c-3 -10 -5 -4
-5 12 0 17 2 24 5 18 2 -7 2 -21 0 -30z"/>
<path d="M4495 8695 c-345 -52 -675 -166 -980 -339 -259 -147 -555 -379 -676
-529 -51 -63 -51 -87 -3 -87 32 0 48 12 153 111 107 103 290 248 436 346 226
151 518 277 828 357 157 40 170 42 355 61 148 14 181 25 203 66 9 17 8 23 -2
30 -23 15 -157 8 -314 -16z"/>
<path d="M4430 8533 c-305 -54 -797 -272 -1112 -493 -169 -119 -398 -325 -398
-359 0 -24 36 -52 59 -44 9 3 45 34 81 68 248 237 580 446 927 586 162 65 378
130 515 153 28 5 42 14 53 36 27 52 21 60 -42 59 -32 -1 -69 -4 -83 -6z"/>
<path d="M6320 5321 c-132 -43 -310 -151 -387 -235 -156 -170 -199 -441 -105
-656 24 -55 99 -156 151 -203 127 -114 358 -156 369 -66 4 33 -9 42 -93 64
-216 56 -338 192 -366 410 -10 79 -10 97 5 150 24 80 72 157 153 245 72 78
136 115 287 166 146 50 274 20 461 -106 139 -94 225 -214 261 -366 19 -79 21
-262 5 -337 -11 -45 -90 -194 -151 -282 -57 -82 -185 -192 -355 -305 -155
-103 -249 -153 -531 -285 -90 -42 -113 -62 -91 -84 20 -20 91 -11 172 23 44
18 125 52 180 75 143 60 370 184 467 256 86 63 216 201 293 310 55 79 124 238
135 312 4 32 8 108 9 168 2 92 -2 125 -24 200 -78 269 -254 446 -533 535 -111
36 -223 40 -312 11z"/>
<path d="M3544 1736 c-17 -8 -44 -31 -60 -52 -23 -30 -29 -48 -29 -89 0 -66
19 -101 70 -130 66 -38 91 -39 151 -10 93 45 122 112 84 190 -40 82 -142 125
-216 91z"/>
<path d="M4680 1370 c-199 -5 -326 -13 -390 -24 -51 -9 -96 -18 -98 -21 -7 -7
34 -23 78 -29 88 -12 812 -27 1295 -27 578 0 935 16 935 41 0 14 -51 20 -235
29 -99 6 -234 14 -300 20 -164 13 -926 20 -1285 11z"/>
</g>
</svg>
